<svg width="34" height="37" viewBox="0 0 34 37" fill="none" xmlns="http://www.w3.org/2000/svg">
<path d="M30.75 4.875H3.25C2.49061 4.875 1.875 5.49061 1.875 6.25V33.75C1.875 34.5094 2.49061 35.125 3.25 35.125H30.75C31.5094 35.125 32.125 34.5094 32.125 33.75V6.25C32.125 5.49061 31.5094 4.875 30.75 4.875Z" stroke="#FFA16C" stroke-width="2.5" stroke-linecap="round" stroke-linejoin="round"/>
<path d="M25.25 2.125V7.625" stroke="#FFA16C" stroke-width="2.5" stroke-linecap="round" stroke-linejoin="round"/>
<path d="M8.75 2.125V7.625" stroke="#FFA16C" stroke-width="2.5" stroke-linecap="round" stroke-linejoin="round"/>
<path d="M1.875 13.125H32.125" stroke="#FFA16C" stroke-width="2.5" stroke-linecap="round" stroke-linejoin="round"/>
<path d="M17 26.875C18.5188 26.875 19.75 25.6438 19.75 24.125C19.75 22.6062 18.5188 21.375 17 21.375C15.4812 21.375 14.25 22.6062 14.25 24.125C14.25 25.6438 15.4812 26.875 17 26.875Z" fill="#FFA16C"/>
</svg>
