<svg width="20" height="16" viewBox="0 0 20 16" fill="none" xmlns="http://www.w3.org/2000/svg">
<path d="M18.75 6.75H1.25C0.559648 6.75 0 7.30965 0 8C0 8.69035 0.559648 9.25 1.25 9.25H18.75C19.4404 9.25 20 8.69035 20 8C20 7.30965 19.4404 6.75 18.75 6.75Z" fill="#F5F5F5"/>
<path d="M1.25 3.41668H18.75C19.4404 3.41668 20 2.85703 20 2.16668C20 1.47633 19.4404 0.916679 18.75 0.916679H1.25C0.559648 0.916679 0 1.47633 0 2.16668C0 2.85703 0.559648 3.41668 1.25 3.41668Z" fill="#F5F5F5"/>
<path d="M18.75 12.5833H1.25C0.559648 12.5833 0 13.143 0 13.8333C0 14.5237 0.559648 15.0833 1.25 15.0833H18.75C19.4404 15.0833 20 14.5237 20 13.8333C20 13.143 19.4404 12.5833 18.75 12.5833Z" fill="#F5F5F5"/>
</svg>
