<svg width="20" height="20" viewBox="0 0 20 20" fill="none" xmlns="http://www.w3.org/2000/svg">
<rect width="20" height="20" rx="6" fill="#7839CD"/>
<g clip-path="url(#clip0_1707_540)">
<path d="M14.125 6.625H5.875" stroke="white" stroke-width="0.8" stroke-linecap="round" stroke-linejoin="round"/>
<path d="M8.875 8.875V11.875" stroke="white" stroke-width="0.8" stroke-linecap="round" stroke-linejoin="round"/>
<path d="M11.125 8.875V11.875" stroke="white" stroke-width="0.8" stroke-linecap="round" stroke-linejoin="round"/>
<path d="M13.375 6.625V13.75C13.375 13.8495 13.3355 13.9448 13.2652 14.0152C13.1948 14.0855 13.0995 14.125 13 14.125H7C6.90054 14.125 6.80516 14.0855 6.73484 14.0152C6.66451 13.9448 6.625 13.8495 6.625 13.75V6.625" stroke="white" stroke-width="0.8" stroke-linecap="round" stroke-linejoin="round"/>
<path d="M11.875 6.625V5.875C11.875 5.67609 11.796 5.48532 11.6553 5.34467C11.5147 5.20402 11.3239 5.125 11.125 5.125H8.875C8.67609 5.125 8.48532 5.20402 8.34467 5.34467C8.20402 5.48532 8.125 5.67609 8.125 5.875V6.625" stroke="white" stroke-width="0.8" stroke-linecap="round" stroke-linejoin="round"/>
</g>
<defs>
<clipPath id="clip0_1707_540">
<rect width="12" height="12" fill="white" transform="translate(4 4)"/>
</clipPath>
</defs>
</svg>
